<?xml version="1.0" standalone="no"?>
<!DOCTYPE svg PUBLIC "-//W3C//DTD SVG 20010904//EN"
 "http://www.w3.org/TR/2001/REC-SVG-20010904/DTD/svg10.dtd">
<svg version="1.0" xmlns="http://www.w3.org/2000/svg"
 width="330" height="109.557" >

<g transform="translate(0.000000,753.000000) scale(0.100000,-0.100000)"
fill="#000000" stroke="none">
<path d="M0 3765 l0 -3765 5815 0 5815 0 0 3765 0 3765 -2152 0 c-1895 -1
-2151 -2 -2134 -15 11 -8 26 -15 35 -15 8 0 12 -3 8 -6 -3 -3 -41 -8 -84 -10
-160 -9 -309 -70 -398 -163 -43 -44 -79 -94 -83 -113 -1 -5 -2 -9 -3 -10 0 -2
-2 -11 -4 -21 -9 -48 -29 -63 -38 -29 -4 16 -5 16 -6 -1 0 -10 -6 -15 -12 -12
-6 4 -5 -2 3 -14 7 -12 16 -21 21 -21 4 0 5 -5 2 -11 -4 -6 -17 3 -31 22 -13
18 -24 28 -24 22 0 -7 5 -15 10 -18 8 -5 8 -11 0 -20 -8 -10 -8 -15 1 -21 8
-5 9 -3 4 5 -5 9 -1 9 14 -1 12 -7 21 -17 21 -22 0 -4 -7 -3 -15 4 -12 10 -17
8 -25 -11 -10 -22 -10 -22 -6 -2 3 16 -1 21 -15 20 -12 -1 -15 -5 -9 -11 6 -6
10 -17 10 -26 0 -9 -8 -3 -20 15 -11 17 -20 25 -20 18 0 -6 5 -15 10 -18 25
-15 -10 -49 -70 -69 -20 -6 -82 -93 -80 -112 1 -3 -7 -12 -17 -20 -17 -13 -17
-14 2 -7 l20 6 -20 -24 c-15 -18 -16 -20 -2 -10 12 10 17 10 17 1 0 -6 11 2
25 18 27 33 76 59 127 68 31 6 32 6 13 -9 -11 -8 -24 -13 -30 -10 -5 4 -7 3
-3 -2 4 -4 -6 -23 -22 -41 -47 -54 -57 -114 -33 -197 3 -13 11 -5 29 32 31 61
108 143 163 170 48 25 143 51 186 51 16 0 64 13 105 29 123 48 346 87 379 66
10 -5 12 -4 7 3 -4 7 -3 12 3 12 5 0 13 -4 16 -10 3 -5 12 -10 18 -10 7 0 6 4
-3 11 -11 8 -2 9 34 5 27 -3 55 -6 62 -6 8 0 14 -5 14 -11 0 -5 -4 -8 -9 -5
-5 3 -11 -1 -14 -8 -4 -11 0 -13 15 -11 19 4 20 3 4 -14 -10 -11 -13 -22 -8
-25 6 -3 13 1 16 9 3 8 9 14 13 13 9 -3 13 5 13 28 0 9 -5 12 -12 8 -6 -4 -8
-3 -5 4 6 9 27 9 47 2 3 -1 8 -2 12 -1 4 0 5 -6 1 -15 -5 -13 -7 -13 -14 -2
-8 12 -10 11 -13 -11 -1 -13 -26 -38 -26 -27 0 5 -9 -2 -20 -15 -16 -20 -19
-21 -20 -6 0 9 1 20 3 23 1 3 -6 10 -16 16 -15 8 -16 12 -6 24 7 8 8 14 3 13
-5 -1 -11 0 -14 1 -19 7 -39 7 -34 -1 3 -6 2 -16 -3 -22 -4 -7 -1 -5 8 5 9 9
19 14 23 11 3 -4 -1 -15 -11 -25 -9 -10 -13 -21 -10 -25 4 -3 0 -14 -9 -24
-10 -11 -12 -19 -4 -24 6 -4 9 -1 8 7 -2 7 2 12 9 11 7 -2 10 6 7 21 -2 15 1
23 11 23 10 0 13 -9 10 -31 -4 -28 -4 -29 4 -6 8 23 9 23 10 4 1 -26 -24 -52
-32 -32 -3 8 -6 6 -6 -5 -1 -10 -5 -16 -10 -13 -5 3 -11 -1 -14 -9 -4 -8 -15
-12 -26 -10 -12 2 -20 -1 -18 -8 1 -6 -9 -13 -23 -15 -22 -4 -23 -2 -10 15 9
11 5 10 -11 -5 -14 -12 -29 -19 -32 -15 -4 3 -7 2 -7 -3 0 -11 -8 -12 -145
-17 -55 -2 -104 -1 -110 2 -18 10 -35 10 -35 -1 0 -6 7 -8 15 -4 12 4 13 2 3
-13 -9 -15 -7 -27 11 -62 13 -24 28 -47 35 -51 7 -5 6 -8 -4 -8 -10 0 -7 -5 8
-16 12 -8 20 -20 16 -25 -3 -5 -2 -8 3 -7 5 2 21 -7 37 -20 24 -18 27 -25 16
-35 -10 -10 -11 -9 -5 2 5 9 4 12 -3 7 -7 -4 -12 -15 -13 -24 0 -14 -2 -14 -6
-2 -3 8 -11 19 -17 23 -7 6 -5 7 5 4 9 -3 16 0 16 7 0 6 -8 12 -18 12 -10 0
-16 -4 -13 -7 2 -4 0 -10 -5 -14 -6 -3 -7 -13 -4 -21 5 -13 7 -13 14 -2 6 9 9
6 9 -10 0 -16 4 -21 13 -16 9 6 9 5 0 -8 -7 -8 -9 -19 -5 -23 4 -5 1 -5 -5 -1
-8 4 -13 2 -13 -6 0 -8 -3 -9 -8 -3 -11 16 -47 41 -39 29 8 -14 -16 -37 -28
-26 -5 4 -5 1 -1 -6 4 -7 11 -10 15 -7 5 2 13 -7 20 -21 7 -16 16 -22 24 -18
7 4 9 3 4 -2 -5 -5 -14 -9 -20 -9 -7 0 -13 -6 -13 -12 -4 -37 -4 -38 -14 -23
-5 9 -5 19 2 27 8 10 6 13 -5 13 -21 0 -15 -47 9 -66 11 -9 13 -13 6 -9 -7 4
-18 2 -25 -3 -8 -7 -18 -5 -32 6 -21 18 -24 30 -12 49 4 6 3 15 -3 18 -6 4
-10 3 -9 -2 1 -4 0 -10 -1 -13 -1 -3 -3 -17 -4 -32 -2 -20 1 -25 13 -20 14 5
14 3 3 -11 -14 -16 -8 -42 8 -32 4 3 7 -3 6 -12 -2 -10 -6 -17 -9 -15 -10 3
-10 3 -30 7 -13 2 -16 -1 -12 -15 3 -10 1 -21 -5 -25 -6 -3 -7 -11 -4 -17 5
-7 2 -8 -6 -3 -10 6 -12 4 -7 -8 4 -10 2 -16 -5 -14 -7 1 -12 -8 -13 -20 0
-12 -4 -25 -9 -30 -5 -4 -6 -3 -2 4 3 6 2 14 -4 18 -9 6 -15 -16 -11 -39 1 -5
-4 -4 -12 2 -8 7 -17 8 -21 4 -4 -4 -6 -1 -4 7 1 7 -3 16 -10 18 -9 4 -10 -1
-2 -22 7 -17 7 -24 0 -20 -6 3 -10 13 -10 21 0 8 -5 12 -10 9 -6 -4 -7 -11 -4
-17 4 -7 2 -8 -4 -4 -7 4 -12 3 -12 -3 0 -5 6 -12 13 -14 9 -4 9 -6 -1 -6 -7
-1 -15 6 -18 14 -6 14 -8 14 -19 -1 -10 -15 -12 -14 -10 7 1 13 7 25 13 25 7
1 15 3 20 4 4 1 10 2 14 1 4 0 5 7 2 17 -5 14 -4 15 5 2 9 -13 11 -13 11 3 0
9 -5 17 -11 17 -5 0 -7 6 -3 13 4 7 3 9 -2 4 -5 -5 -10 -13 -10 -18 -1 -5 -2
-14 -3 -20 0 -5 -6 -7 -11 -4 -6 4 -8 10 -5 15 6 10 -15 8 -33 -4 -8 -5 -10
-12 -4 -19 12 -16 7 -48 -10 -58 -10 -7 -10 -9 2 -10 8 -1 20 0 25 1 6 1 7 -2
3 -6 -4 -4 -2 -14 4 -23 9 -11 5 -10 -9 2 -12 11 -27 16 -33 12 -6 -3 -9 -1
-8 6 2 6 -3 14 -11 17 -9 3 -11 0 -7 -7 5 -7 -3 -20 -18 -32 -15 -12 -23 -26
-19 -32 4 -7 -1 -6 -10 2 -19 15 -24 2 -6 -16 8 -8 7 -13 -3 -18 -7 -5 -10 -5
-6 0 4 4 3 14 -2 20 -13 16 2 59 27 75 17 11 17 11 -1 6 -15 -5 -18 -2 -14 19
3 13 1 22 -4 19 -5 -3 -8 -16 -7 -27 2 -36 -2 -44 -11 -17 -8 25 -8 25 -9 2
-1 -15 -5 -21 -13 -16 -7 4 -8 3 -4 -5 4 -6 12 -9 17 -6 5 4 9 -1 9 -10 0 -13
-4 -14 -21 -5 -11 7 -23 9 -27 6 -3 -3 0 -6 7 -6 7 0 9 -5 6 -10 -4 -6 -10 -8
-15 -5 -10 6 -7 -22 3 -30 4 -3 5 -2 2 1 -6 9 25 38 32 30 3 -3 1 -12 -5 -19
-9 -10 -8 -18 4 -33 8 -10 12 -12 8 -4 -6 12 -5 13 7 3 12 -10 18 -10 29 0 8
6 6 2 -3 -10 -18 -20 -18 -22 0 -33 17 -11 17 -11 -1 -6 -13 5 -17 2 -13 -8 6
-15 -9 -16 -31 -2 -7 4 -16 5 -19 2 -4 -3 0 -6 8 -6 11 0 11 -2 -1 -10 -11 -7
-11 -10 -2 -10 8 0 10 -5 6 -12 -6 -10 -4 -10 7 0 18 16 26 15 33 -4 5 -14 4
-15 -9 -4 -19 15 -19 10 -2 -24 8 -14 18 -22 22 -18 5 4 5 2 1 -5 -9 -16 -34
-6 -32 14 1 22 -30 25 -46 5 -10 -14 -10 -15 1 -5 17 14 42 6 35 -12 -3 -7 6
-15 22 -19 22 -6 25 -9 13 -17 -7 -5 -9 -9 -4 -9 6 0 3 -6 -5 -13 -8 -7 -15
-18 -15 -26 0 -8 -7 -16 -15 -18 -12 -4 -12 -2 -2 5 10 7 10 11 -2 21 -9 7
-21 11 -28 8 -8 -4 -7 -6 5 -6 9 -1 17 -6 17 -12 0 -5 -4 -8 -8 -5 -7 4 -8
-22 -3 -74 1 -13 2 -13 11 0 6 9 5 17 -3 22 -9 6 -9 8 0 8 30 0 19 -41 -12
-46 -12 -2 -15 3 -11 14 4 10 -3 6 -15 -8 -11 -14 -18 -19 -14 -12 3 6 1 12
-5 12 -7 0 -10 -6 -7 -12 21 -49 34 -67 44 -64 7 3 10 -3 8 -14 -2 -11 1 -23
7 -26 7 -5 8 -2 3 6 -5 9 -4 11 4 6 9 -6 9 -11 1 -21 -8 -10 -7 -16 5 -23 9
-5 17 -13 18 -18 1 -17 38 -93 47 -99 6 -4 7 -11 4 -17 -4 -7 -2 -8 5 -4 6 4
9 11 6 16 -3 5 -1 11 4 15 6 3 8 -4 5 -17 -2 -13 7 -46 22 -76 26 -51 44 -73
44 -53 0 5 -4 11 -9 13 -5 2 -12 17 -15 33 l-6 30 11 -28 c6 -15 14 -25 19
-22 4 3 7 -9 6 -25 -1 -17 3 -35 10 -41 10 -8 12 -5 8 16 -5 26 -4 26 15 8 11
-10 19 -22 19 -27 0 -5 6 -13 14 -18 10 -8 10 -9 -2 -5 -8 2 -15 9 -15 15 0 5
-3 13 -7 17 -4 4 -6 -7 -6 -25 1 -17 4 -28 7 -23 3 4 16 8 28 9 16 0 20 -3 13
-11 -5 -6 -8 -18 -6 -28 2 -19 67 -90 74 -82 3 3 12 -1 20 -7 8 -7 19 -13 26
-14 6 -1 31 -11 56 -22 25 -12 83 -35 130 -52 133 -49 131 -47 163 -147 15
-48 32 -89 37 -91 6 -2 10 -10 10 -18 0 -8 6 -13 13 -12 6 2 10 -4 9 -12 -2
-8 0 -12 4 -8 4 4 14 2 22 -5 11 -8 14 -8 9 0 -4 6 -3 15 3 18 12 8 42 -13 35
-24 -2 -4 2 -8 10 -8 8 0 12 4 9 9 -3 4 6 4 19 -1 14 -6 28 -7 32 -3 3 3 3 -1
0 -10 -4 -10 -1 -16 7 -15 7 0 22 -1 33 -2 15 -1 17 -3 6 -10 -9 -6 0 -9 25
-9 22 0 52 -5 67 -11 15 -6 27 -8 27 -4 0 4 7 -2 15 -13 12 -15 14 -15 9 -2
-5 14 -1 16 23 12 15 -2 34 -7 41 -9 7 -3 10 0 7 5 -3 6 3 11 14 11 20 1 32 4
49 9 4 1 11 2 16 1 5 -1 3 6 -5 15 -12 15 -12 17 0 9 11 -6 13 -4 7 10 -5 15
-4 16 9 5 11 -9 15 -9 15 -1 0 7 4 9 10 6 13 -8 13 1 0 25 -9 17 -8 18 7 13
16 -6 16 -5 4 10 -12 16 -12 17 5 10 17 -6 17 -5 5 10 -12 15 -12 17 2 12 17
-7 51 50 40 68 -3 6 -1 7 5 3 9 -5 44 42 47 64 0 3 12 23 26 45 87 135 114
242 84 332 -6 20 -4 22 21 17 61 -11 122 -82 138 -159 3 -16 7 -69 8 -117 1
-48 6 -84 10 -82 5 3 6 10 3 15 -4 5 1 9 10 9 9 0 14 -4 10 -9 -3 -5 0 -13 6
-17 7 -4 9 -3 6 3 -4 6 0 13 8 17 8 3 17 1 20 -4 4 -6 1 -10 -5 -10 -6 0 -8
-5 -4 -11 4 -8 9 -7 15 2 5 8 9 11 9 7 0 -4 16 0 35 8 19 7 48 14 66 14 26 0
30 -3 24 -17 -4 -10 -9 -34 -12 -55 -5 -34 -3 -38 36 -62 23 -15 40 -30 37
-34 -8 -13 22 -44 35 -36 7 4 10 3 5 -4 -3 -5 0 -13 6 -16 7 -3 2 -4 -12 -1
-14 3 -19 2 -12 -1 6 -3 10 -10 7 -15 -4 -5 2 -6 11 -2 11 4 15 3 10 -5 -3 -6
-1 -14 5 -17 5 -4 8 -13 5 -21 -3 -8 -2 -13 2 -13 28 4 34 -1 21 -18 -12 -14
-12 -16 0 -8 11 6 13 3 9 -13 -4 -12 -2 -20 3 -16 5 3 9 -2 9 -10 0 -9 6 -16
13 -16 8 0 7 -3 -3 -9 -8 -6 -18 -7 -24 -4 -5 3 -6 1 -2 -5 4 -6 14 -8 22 -5
14 5 15 3 4 -18 -13 -23 -12 -23 5 -9 17 14 17 14 7 -7 -15 -27 -15 -36 -2
-28 6 3 10 1 10 -5 0 -6 6 -8 13 -5 6 4 3 -1 -7 -9 -17 -14 -18 -16 -3 -16 9
0 16 -4 15 -9 -2 -5 1 -9 6 -9 5 0 12 -4 15 -9 3 -5 20 -19 38 -31 17 -12 35
-32 39 -44 5 -16 8 -18 15 -7 7 11 9 10 9 -4 0 -11 4 -15 12 -11 7 4 8 3 4 -4
-4 -6 -14 -8 -23 -5 -11 4 -14 3 -9 -5 5 -8 0 -12 -13 -12 -11 0 -23 -5 -27
-12 -5 -7 -2 -8 7 -3 11 6 12 5 2 -6 -17 -17 -17 -32 0 -23 8 6 8 3 -1 -9 -8
-9 -11 -21 -8 -26 4 -5 2 -13 -4 -16 -8 -5 -7 -12 2 -23 7 -10 8 -14 4 -10 -5
4 -16 2 -24 -5 -13 -10 -14 -9 -7 3 5 8 10 22 12 30 1 11 -2 10 -12 -3 -7 -10
-21 -20 -31 -21 -10 -2 -22 -14 -25 -27 -4 -13 -7 -18 -8 -11 -2 20 -38 -4
-55 -36 -48 -90 -169 -170 -291 -192 -91 -16 -99 -17 -110 -9 -5 3 -28 9 -51
11 -23 3 -73 22 -112 41 -38 20 -78 34 -89 33 -20 -4 -43 11 -43 28 0 6 5 4
11 -4 7 -10 9 -11 7 -2 -2 8 -7 13 -12 12 -5 -1 -13 4 -17 12 -7 11 -9 11 -9
-1 0 -11 -3 -11 -15 -1 -8 6 -20 8 -27 4 -11 -6 -10 -5 0 8 11 14 10 16 -12
14 -14 -2 -24 2 -23 8 1 6 -4 10 -11 8 -6 -1 -11 4 -10 10 2 7 -2 12 -9 11 -8
-2 -10 4 -6 15 3 9 2 14 -2 10 -5 -5 -13 2 -20 15 -6 12 -17 21 -24 19 -9 -2
-9 3 0 20 11 20 10 21 -2 11 -13 -10 -15 -8 -13 17 1 17 -2 28 -7 25 -4 -3 -7
-11 -5 -18 1 -7 1 -9 -1 -4 -3 4 -9 4 -15 1 -5 -3 -4 4 4 15 12 19 10 24 -11
40 -13 10 -19 21 -14 24 11 7 11 52 1 62 -9 9 2 36 12 30 5 -3 12 0 16 6 4 8
3 9 -4 5 -7 -4 -12 -1 -12 6 -1 8 -6 6 -15 -6 -8 -11 -15 -15 -15 -8 0 6 13
21 29 33 21 15 27 27 23 42 -5 20 -4 21 14 7 19 -14 19 -14 0 7 -18 22 -18 22
4 18 13 -2 19 -1 16 3 -4 4 -13 7 -19 7 -7 1 -11 7 -9 15 3 11 0 11 -15 0 -10
-8 -15 -10 -11 -6 5 5 -1 16 -12 23 -11 8 -17 19 -14 25 5 7 2 8 -5 4 -7 -5
-22 0 -34 11 -17 14 -19 14 -9 1 12 -15 10 -16 -17 -14 -17 1 -33 5 -37 9 -4
3 3 4 15 2 12 -2 19 0 16 5 -4 7 -26 7 -45 0 -3 -1 -9 -2 -14 -1 -4 1 -15 -4
-23 -10 -8 -7 -13 -8 -12 -3 4 24 -3 23 -27 -3 -14 -15 -23 -22 -19 -15 3 6 1
12 -4 12 -6 0 -11 8 -11 18 -1 16 -1 16 -11 -1 -6 -11 -12 -25 -13 -32 -1 -7
-8 -20 -15 -29 -15 -18 -5 -59 12 -50 9 5 9 4 1 -5 -8 -9 -2 -47 21 -144 38
-152 37 -155 -35 -244 -28 -34 -50 -68 -50 -76 0 -8 18 -57 40 -111 23 -53 38
-102 34 -109 -4 -6 -23 -31 -42 -55 l-35 -42 28 -22 c23 -18 26 -27 22 -59 -4
-33 -1 -40 22 -55 14 -9 51 -38 81 -65 l55 -47 140 -22 c92 -15 143 -27 150
-37 10 -14 15 -13 44 2 24 12 40 32 58 73 13 31 42 94 64 138 21 45 41 101 45
125 9 59 18 73 61 100 52 32 150 33 214 1 106 -52 169 -155 169 -276 0 -65
-18 -128 -64 -226 l-25 -55 37 -20 c21 -11 66 -39 99 -62 34 -24 68 -43 75
-43 7 0 36 10 64 21 41 17 56 31 82 74 42 70 123 142 169 151 67 13 149 -2
215 -38 35 -19 69 -46 77 -60 14 -24 12 -32 -27 -117 -23 -51 -42 -97 -42
-103 0 -6 20 -33 45 -59 25 -26 45 -56 45 -67 0 -17 -146 -279 -192 -345 -43
-61 -57 -68 -160 -82 -42 -5 -48 -9 -48 -31 0 -38 -41 -71 -225 -177 l-80 -46
-105 14 c-61 8 -136 11 -177 8 -66 -5 -76 -4 -111 19 -46 31 -118 68 -131 68
-5 0 -12 -24 -15 -52 -30 -308 -51 -425 -102 -577 -39 -117 -79 -184 -111
-189 -18 -3 -28 -21 -54 -99 -27 -81 -39 -104 -76 -140 -48 -46 -116 -73 -188
-73 -22 0 -94 13 -160 29 -252 61 -531 121 -566 121 -13 0 -17 -14 -21 -69 -7
-96 -40 -151 -111 -186 l-54 -26 -249 2 c-295 1 -225 1 -530 0 -175 -1 -260 2
-278 10 -22 11 -31 8 -68 -17 -40 -27 -49 -29 -145 -29 -91 0 -105 2 -133 24
-18 13 -42 23 -54 22 -11 -1 -70 -5 -131 -9 -156 -10 -207 -3 -245 33 -37 35
-72 139 -69 205 3 72 3 72 -28 57 -38 -20 -292 -69 -318 -63 -12 3 -38 -3 -59
-13 -20 -11 -96 -34 -170 -52 -125 -31 -136 -32 -182 -19 -56 16 -127 80 -138
126 -17 69 -58 194 -67 199 -5 4 -30 -3 -56 -15 -27 -12 -58 -19 -70 -15 -43
10 -114 188 -152 378 -22 108 -51 336 -51 399 0 21 -4 38 -10 38 -17 0 -64
-23 -118 -58 -51 -34 -56 -35 -124 -29 -41 4 -117 0 -180 -8 l-108 -15 -108
64 c-156 93 -190 120 -194 153 -3 29 -12 33 -113 49 -27 4 -49 16 -71 39 -39
41 -214 346 -214 372 0 22 40 80 72 104 l21 16 -38 84 c-21 46 -38 100 -39
119 -1 31 4 38 54 71 67 45 110 59 184 59 93 0 165 -51 230 -163 21 -35 38
-49 78 -66 28 -11 56 -21 63 -21 6 0 48 24 92 53 44 28 88 57 99 63 18 10 17
15 -21 100 -63 144 -61 273 6 371 33 48 96 94 152 113 42 13 117 19 117 9 0
-4 12 -9 28 -12 52 -12 82 -47 92 -111 5 -32 20 -77 33 -100 13 -22 39 -78 57
-124 24 -60 42 -91 68 -112 36 -29 36 -29 57 -10 15 14 56 25 154 40 l134 21
51 46 c28 25 66 55 84 66 37 22 35 18 22 51 -8 22 -5 31 19 58 l29 33 -39 45
c-21 25 -39 51 -39 57 0 7 18 58 40 114 45 112 46 97 -13 164 -10 11 -30 39
-44 63 -26 43 -26 44 -11 113 13 56 13 69 3 67 -8 -2 -14 0 -14 5 -2 21 0 27
10 27 5 0 7 -4 4 -10 -3 -5 -2 -10 3 -10 5 0 14 12 20 28 11 28 18 52 101 357
59 217 64 230 88 240 10 3 106 38 213 77 107 38 203 77 212 86 31 31 293 524
368 692 18 41 51 117 72 169 56 134 112 243 175 341 61 94 209 246 249 256 19
5 22 9 12 15 -10 7 -8 9 7 10 11 1 23 1 28 0 4 0 7 4 7 10 0 5 5 7 10 4 6 -3
13 1 16 9 3 9 9 14 13 12 4 -3 13 0 21 6 12 8 12 9 -2 4 -11 -3 -18 0 -18 7
-1 7 -7 1 -15 -13 -8 -14 -14 -19 -15 -11 0 11 -3 11 -17 1 -10 -7 -2 2 17 19
19 17 36 36 36 41 1 6 2 15 3 20 0 6 7 10 15 10 9 0 12 7 9 20 -3 11 0 20 6
20 6 0 11 4 11 9 0 5 8 26 17 47 9 22 17 42 17 45 1 3 8 13 17 22 13 12 19 13
28 4 9 -9 11 -8 6 6 -4 9 -12 17 -18 17 -6 0 -7 3 -4 6 4 4 13 2 20 -4 10 -9
14 -8 14 3 0 8 -9 15 -21 15 -14 0 -17 3 -9 8 7 4 14 17 16 27 1 11 6 26 10
33 5 6 6 12 2 12 -3 0 3 17 14 39 11 21 18 41 15 44 -3 3 0 16 7 29 7 12 13
30 14 38 0 8 5 14 11 13 7 -1 9 8 6 24 -3 17 -1 24 6 19 6 -3 14 -1 18 5 4 8
3 9 -4 5 -7 -4 -12 -1 -12 9 0 10 5 13 12 9 6 -4 8 -3 5 4 -9 13 2 44 13 37 5
-3 6 3 3 13 -2 10 5 39 16 65 11 26 18 47 14 47 -3 0 2 9 12 20 10 11 15 20
12 20 -4 0 4 25 18 55 l24 55 -326 0 c-285 0 -324 -2 -319 -15 3 -8 1 -15 -4
-15 -6 0 -10 -9 -10 -21 0 -11 -4 -17 -10 -14 -6 3 -10 -1 -10 -9 0 -27 -1
-31 -16 -47 -8 -9 -11 -19 -7 -22 3 -4 1 -7 -6 -7 -7 0 -9 -5 -5 -12 4 -7 3
-8 -4 -4 -6 4 -8 14 -5 24 7 18 5 17 -17 -12 -8 -11 -10 -17 -4 -13 7 4 15 0
18 -9 5 -12 2 -15 -10 -10 -14 5 -15 4 -4 -9 10 -12 9 -16 -3 -21 -20 -7 -39
4 -31 18 5 7 2 8 -6 3 -10 -6 -8 -13 11 -28 23 -19 23 -20 2 -15 -15 4 -20 2
-16 -8 3 -8 9 -11 14 -8 5 3 6 -2 3 -10 -3 -9 -11 -13 -17 -9 -6 4 -7 1 -1 -8
13 -21 15 -47 4 -54 -6 -3 -7 2 -4 12 5 15 4 15 -4 3 -8 -10 -8 -18 0 -27 13
-16 -4 -17 -19 -2 -8 8 -13 7 -18 -2 -5 -7 -4 -10 2 -6 6 4 16 0 23 -8 7 -8
17 -12 24 -8 6 3 2 -3 -8 -15 -13 -16 -23 -19 -31 -12 -9 8 -12 4 -9 -16 1
-14 0 -23 -3 -20 -4 3 -12 1 -19 -5 -7 -6 -14 -6 -18 -1 -3 6 2 16 11 23 14
12 16 12 8 0 -5 -10 -4 -12 4 -7 8 6 9 12 2 20 -6 7 -7 17 -3 22 4 5 -5 -2
-20 -15 -21 -18 -25 -28 -18 -41 10 -19 -10 -47 -23 -33 -4 3 -7 -1 -7 -10 0
-9 -4 -18 -9 -21 -5 -4 -4 10 2 29 9 29 13 33 26 23 13 -10 14 -10 3 2 -7 8
-23 15 -36 16 -20 1 -23 -3 -19 -20 7 -27 6 -45 -1 -75 -6 -27 -16 -40 -16
-22 0 7 -5 9 -10 6 -8 -5 -8 -11 0 -20 8 -9 8 -15 0 -20 -6 -4 -10 -3 -9 2 1
4 0 10 -1 13 -10 27 -6 38 12 35 16 -4 18 -2 8 10 -10 12 -10 15 1 15 7 0 3 7
-9 16 -18 13 -21 19 -11 30 6 8 8 14 4 14 -4 0 -2 7 5 15 6 8 9 19 5 25 -3 5
-1 10 5 10 7 0 6 5 -2 14 -13 14 -32 0 -22 -16 3 -4 0 -8 -6 -8 -7 0 -9 8 -4
23 8 25 24 38 38 30 5 -3 6 -1 2 6 -4 6 -12 9 -17 6 -5 -4 -9 -1 -9 4 0 6 5
11 10 11 6 0 10 5 10 11 0 5 -4 8 -9 4 -5 -3 -13 0 -17 6 -5 8 -3 9 6 4 10 -6
12 -4 7 8 -4 11 -1 17 9 17 8 0 13 -4 10 -8 -3 -5 1 -9 9 -9 11 0 12 4 4 14
-6 7 -8 13 -4 13 4 0 3 6 -3 13 -17 21 -18 24 -1 43 9 11 15 27 14 37 -4 19 5
22 23 7 6 -6 10 -7 7 -3 -3 3 3 16 12 27 18 21 18 21 -3 3 -25 -21 -40 -11
-16 12 10 9 13 13 7 9 -7 -4 -11 2 -11 17 0 17 3 21 12 14 7 -6 15 -5 23 5 9
11 9 16 0 22 -7 4 -9 3 -5 -4 3 -6 2 -14 -4 -17 -7 -4 -10 5 -8 24 1 16 6 27
12 24 5 -4 7 1 3 11 -4 9 -3 14 2 11 5 -3 12 -1 16 5 4 7 -837 10 -2559 10
l-2566 0 0 -3765z m7507 3495 c46 -11 109 -33 140 -49 88 -46 95 -52 48 -47
-22 3 -58 5 -80 5 -32 1 -44 6 -59 30 -37 54 -170 79 -250 46 -20 -8 -36 -16
-36 -18 0 -1 11 -4 26 -5 14 -1 35 -7 46 -13 21 -11 21 -12 3 -25 -18 -13 -54
-18 -102 -14 -17 1 -23 -4 -23 -19 0 -14 -9 -23 -27 -27 -39 -9 -132 -52 -165
-76 -33 -23 -35 -11 -8 43 82 159 264 223 487 169z m-2367 -134 c0 -2 -8 -10
-17 -17 -16 -13 -17 -12 -4 4 13 16 21 21 21 13z m1655 -14 c-3 -3 -11 0 -18
7 -9 10 -8 11 6 5 10 -3 15 -9 12 -12z m-1783 -15 c-7 -8 -9 -17 -5 -20 3 -4
-2 -9 -11 -13 -9 -3 -16 -10 -16 -16 0 -5 4 -7 9 -3 5 3 13 0 18 -7 12 -21 12
-35 -2 -35 -7 0 -12 8 -10 18 3 12 -1 16 -11 12 -10 -4 -13 2 -12 20 2 17 7
23 18 19 12 -4 13 -2 3 9 -18 18 -16 27 5 31 23 6 27 1 14 -15z m58 -23 c0 -8
-5 -12 -10 -9 -6 4 -8 11 -5 16 9 14 15 11 15 -7z m-85 -63 c-3 -5 -2 -12 3
-15 13 -8 8 -71 -5 -72 -26 -3 -28 -4 -16 -12 9 -5 6 -12 -10 -21 -19 -13 -20
-12 -10 1 10 11 10 17 0 27 -6 7 -7 11 -2 10 14 -3 45 12 45 22 0 4 -16 1 -36
-7 -20 -8 -33 -10 -29 -5 3 6 12 11 19 11 8 0 17 16 20 35 4 19 11 35 17 35 6
0 8 -4 4 -9z m-34 -174 c-6 -8 -7 -18 -3 -22 4 -5 1 -5 -6 -1 -10 6 -10 11 -1
22 6 8 14 14 16 14 3 0 0 -6 -6 -13z m2244 -77 c6 -1 12 -4 15 -7 3 -2 1 -3
-5 -1 -5 2 -11 -1 -11 -7 -1 -5 2 -9 8 -7 5 1 7 -2 3 -8 -5 -8 -11 -7 -22 1
-11 10 -16 10 -22 0 -6 -10 -10 -9 -14 3 -3 8 -2 18 4 21 5 4 6 11 3 17 -4 7
0 7 12 0 11 -6 24 -11 29 -12z m5 -55 c0 -2 -6 -5 -13 -8 -8 -3 -14 1 -14 8 0
7 6 11 14 8 7 -3 13 -6 13 -8z m107 -172 c0 -9 -4 -10 -14 -2 -7 6 -13 12 -13
14 0 1 6 2 13 2 8 0 14 -6 14 -14z m-120 -79 c-9 -9 -28 6 -21 18 4 6 10 6 17
-1 6 -6 8 -13 4 -17z m-308 -288 c10 -12 8 -13 -8 -9 -12 3 -18 9 -15 14 7 12
10 11 23 -5z m176 -24 c-3 -3 -11 0 -18 7 -9 10 -8 11 6 5 10 -3 15 -9 12 -12z
m5 -33 c0 -5 -4 -7 -10 -4 -5 3 -10 1 -10 -6 0 -7 -3 -10 -6 -6 -8 7 4 27 17
27 5 0 9 -5 9 -11z m-165 -18 c3 -5 2 -12 -3 -15 -5 -3 -9 1 -9 9 0 17 3 19
12 6z m69 -7 c3 -8 2 -12 -4 -9 -6 3 -10 10 -10 16 0 14 7 11 14 -7z m-51 -24
c-3 -12 -8 -19 -11 -16 -5 6 5 36 12 36 2 0 2 -9 -1 -20z m127 10 c0 -5 -2
-10 -4 -10 -3 0 -8 5 -11 10 -3 6 -1 10 4 10 6 0 11 -4 11 -10z m-60 -20 c-8
-5 -19 -10 -25 -10 -5 0 -3 5 5 10 8 5 20 10 25 10 6 0 3 -5 -5 -10z m-136
-40 c-6 -6 -10 -3 -10 10 0 13 4 16 10 10 7 -7 7 -13 0 -20z m93 8 c-3 -8 -6
-5 -6 6 -1 11 2 17 5 13 3 -3 4 -12 1 -19z m-139 -13 c-3 -3 -9 2 -12 12 -6
14 -5 15 5 6 7 -7 10 -15 7 -18z m116 17 c3 -5 -1 -9 -9 -9 -8 0 -12 4 -9 9 3
4 7 8 9 8 2 0 6 -4 9 -8z m-34 -16 c0 -2 -7 -7 -16 -10 -8 -3 -12 -2 -9 4 6
10 25 14 25 6z m40 -43 c1 4 3 11 4 16 0 5 5 13 9 18 5 4 7 1 5 -7 -2 -11 4
-14 22 -13 22 2 23 2 7 -8 -10 -6 -21 -8 -24 -5 -4 3 -12 1 -20 -5 -7 -6 -13
-8 -13 -3 0 4 -6 -1 -14 -12 -13 -17 -13 -15 -3 19 11 34 13 35 19 15 3 -13 7
-20 8 -15z m-107 19 c2 7 7 10 11 7 4 -3 0 -11 -7 -18 -11 -9 -17 -7 -28 6
-13 16 -12 17 3 5 13 -10 17 -10 21 0z m47 -37 c14 -19 14 -19 -2 -6 -10 7
-18 18 -18 24 0 6 1 8 3 6 1 -2 9 -13 17 -24z m151 2 c-10 -9 -11 -8 -5 6 3
10 9 15 12 12 3 -3 0 -11 -7 -18z m-31 9 c0 -2 -8 -10 -17 -17 -16 -13 -17
-12 -4 4 13 16 21 21 21 13z m-175 -26 c3 -6 -1 -7 -9 -4 -18 7 -21 14 -7 14
6 0 13 -4 16 -10z m35 6 c0 -3 -4 -8 -10 -11 -5 -3 -10 -1 -10 4 0 6 5 11 10
11 6 0 10 -2 10 -4z m99 -10 c9 -11 9 -16 -1 -22 -7 -4 -10 -4 -6 1 4 4 3 14
-3 22 -6 7 -9 13 -6 13 2 0 10 -6 16 -14z m-25 -14 c3 -5 -1 -9 -9 -9 -8 0
-12 4 -9 9 3 4 7 8 9 8 2 0 6 -4 9 -8z m-179 -202 c6 -1 12 -3 14 -6 2 -2 -7
-1 -19 1 -13 3 -28 10 -34 16 -8 9 -6 9 9 1 11 -5 25 -11 30 -12z m0 -209 c-3
-5 -1 -12 5 -16 5 -3 10 -11 10 -18 0 -6 -6 -2 -14 8 -13 18 -13 35 0 35 3 0
3 -4 -1 -9z m42 -76 c0 -8 -4 -12 -9 -9 -5 3 -6 10 -3 15 9 13 12 11 12 -6z
m-3392 -172 c-15 -40 -17 -75 -7 -116 19 -73 93 -222 106 -210 5 5 7 0 6 -22
-1 -9 30 -65 36 -65 2 0 0 9 -6 21 -7 11 -9 23 -6 26 3 3 9 -2 12 -11 5 -14 9
-15 15 -4 7 10 9 9 9 -5 0 -11 4 -15 12 -11 8 5 9 2 4 -11 -6 -16 -4 -16 11
-4 15 12 16 12 10 -3 -3 -10 -3 -17 1 -17 21 3 34 -2 29 -13 -3 -8 5 -14 19
-14 14 -1 21 2 17 9 -3 6 -1 7 5 3 6 -4 8 -14 5 -23 -4 -11 -3 -14 5 -9 7 4
12 2 12 -3 0 -6 3 -10 8 -10 21 4 32 -3 33 -18 1 -12 4 -10 9 7 7 21 8 22 9 5
1 -17 3 -17 11 -5 8 13 10 13 10 -2 0 -9 4 -20 10 -23 6 -4 7 1 4 12 -4 11 1
9 12 -7 22 -30 28 -60 12 -60 -6 0 -8 -3 -5 -6 4 -4 14 -1 23 7 16 13 16 12 4
-10 -11 -22 -10 -23 5 -17 15 5 16 4 5 -9 -12 -14 -15 -14 -39 0 -17 11 -14 6
9 -14 39 -33 43 -47 21 -75 -9 -11 -11 -17 -5 -13 7 4 10 -6 10 -27 -1 -25 -5
-32 -15 -28 -8 3 -4 -5 8 -17 19 -19 21 -25 10 -32 -11 -7 -11 -9 3 -9 9 0 20
-9 23 -20 4 -11 11 -18 16 -15 5 4 9 2 9 -3 0 -13 76 -53 85 -44 5 4 4 1 0 -7
-6 -11 -4 -13 8 -8 13 5 17 1 18 -16 1 -17 2 -18 6 -4 2 9 9 17 14 17 14 0 11
-16 -6 -30 -12 -10 -16 -9 -21 4 -6 16 -25 23 -23 9 4 -22 -3 -24 -21 -8 -17
15 -20 16 -20 3 0 -21 -26 -42 -35 -28 -4 6 -1 9 6 8 6 -2 14 3 16 10 4 11 1
12 -16 3 -11 -7 -21 -16 -21 -22 0 -6 -3 -8 -7 -6 -5 3 -8 -5 -8 -18 0 -13 5
-23 10 -22 6 1 9 -4 8 -10 -2 -7 2 -13 9 -13 6 0 8 -3 5 -6 -4 -4 -13 -1 -21
5 -11 9 -16 9 -22 0 -5 -8 -3 -9 6 -4 9 5 11 4 6 -4 -4 -6 -15 -10 -24 -9 -9
2 -17 -2 -17 -9 0 -6 -4 -15 -9 -20 -5 -4 -6 -3 -3 3 4 7 1 14 -7 17 -9 4 -12
-2 -11 -17 2 -14 -3 -23 -11 -23 -9 0 -11 4 -4 12 7 8 5 12 -5 12 -8 0 -15 -7
-15 -15 0 -9 -3 -13 -6 -9 -6 5 -15 0 -49 -31 -8 -7 -18 -13 -22 -13 -4 -1 -7
-5 -6 -10 2 -5 -2 -9 -7 -9 -6 0 -10 4 -10 10 0 5 -9 2 -20 -7 -11 -10 -20
-23 -20 -29 0 -20 -49 -53 -71 -49 -11 2 -17 0 -14 -6 4 -5 11 -7 16 -4 13 9
11 -4 -4 -19 -7 -7 -23 -12 -35 -11 -25 2 -47 -28 -36 -48 4 -6 4 -9 0 -5 -13
11 -68 -13 -62 -27 3 -9 -2 -11 -16 -7 -14 3 -19 1 -14 -6 3 -6 2 -13 -3 -16
-5 -4 -8 1 -7 10 1 8 9 20 17 25 9 5 10 9 2 9 -6 0 -15 -5 -18 -10 -5 -8 -12
-7 -23 2 -15 12 -16 11 -3 -4 18 -24 7 -55 -14 -38 -8 7 -12 17 -8 23 3 6 1 7
-5 3 -6 -4 -9 -12 -6 -19 5 -15 -42 -21 -51 -7 -3 6 -12 10 -18 10 -7 0 -6 -4
3 -11 13 -9 13 -10 -1 -6 -9 3 -23 0 -30 -6 -8 -8 -8 -5 1 7 14 18 13 19 -2
13 -12 -4 -18 -1 -18 9 0 9 5 12 13 8 9 -6 9 -5 0 8 -7 8 -10 18 -6 21 3 4 4
7 1 7 -3 0 -12 -8 -19 -17 -10 -11 -10 -14 -1 -9 6 4 12 5 12 2 0 -14 -19 -14
-31 1 -10 12 -10 14 -1 9 6 -4 12 -3 12 2 0 5 -19 15 -42 22 -230 68 -356 303
-291 545 16 59 16 64 0 80 -9 9 -17 21 -17 26 0 19 2 24 11 22 5 -2 9 3 9 10
0 8 4 7 10 -3 7 -11 10 -11 10 -2 0 7 4 11 9 8 5 -3 11 1 15 9 3 8 12 15 19
15 13 0 87 117 115 183 16 38 15 72 -3 107 l-16 30 31 0 c44 0 93 -23 118 -55
21 -26 22 -27 22 -6 0 15 -4 20 -12 15 -7 -4 -10 -3 -5 1 4 5 18 10 30 12 17
2 19 1 7 -7 -12 -7 -13 -11 -2 -22 11 -11 13 -10 10 2 -2 8 3 14 10 12 10 -2
10 2 1 20 -11 20 -10 21 2 11 12 -10 15 -8 16 8 1 11 -2 17 -7 14 -6 -3 -8 0
-6 7 3 7 7 47 11 88 10 113 48 189 110 216 43 19 59 18 50 -3z m3589 -91 c3
-5 -1 -9 -9 -9 -8 0 -12 4 -9 9 3 4 7 8 9 8 2 0 6 -4 9 -8z m21 -38 c15 -10
22 -21 18 -31 -4 -10 -2 -14 4 -10 6 4 19 0 27 -9 11 -10 16 -11 16 -3 0 7 3
10 6 6 3 -3 3 -11 -1 -17 -5 -8 -12 -7 -24 4 -10 9 -20 14 -22 11 -3 -3 -21
11 -39 30 -35 36 -27 47 15 19z m110 -74 c3 -6 -1 -7 -9 -4 -18 7 -21 14 -7
14 6 0 13 -4 16 -10z m-3575 -134 c0 -2 -8 -10 -17 -17 -16 -13 -17 -12 -4 4
13 16 21 21 21 13z m5087 -81 c0 -8 -4 -12 -9 -9 -5 3 -6 10 -3 15 9 13 12 11
12 -6z m-1117 -101 c0 -8 -19 -13 -24 -6 -3 5 1 9 9 9 8 0 15 -2 15 -3z m18
-23 c-7 -11 -16 -17 -21 -14 -4 3 0 11 10 19 24 18 25 17 11 -5z m299 -283
c-3 -8 -6 -5 -6 6 -1 11 2 17 5 13 3 -3 4 -12 1 -19z m-22 -117 c3 -5 2 -12
-3 -15 -5 -3 -9 1 -9 9 0 17 3 19 12 6z m-3911 -67 c3 -8 2 -12 -4 -9 -6 3
-10 10 -10 16 0 14 7 11 14 -7z m4940 -100 c3 -8 2 -12 -4 -9 -6 3 -10 10 -10
16 0 14 7 11 14 -7z m-5323 -211 c13 -16 12 -17 -3 -4 -17 13 -22 21 -14 21 2
0 10 -8 17 -17z"/>
<path d="M4971 6974 c0 -11 3 -14 6 -6 3 7 2 16 -1 19 -3 4 -6 -2 -5 -13z"/>
<path d="M7155 6750 c-3 -6 1 -7 9 -4 18 7 21 14 7 14 -6 0 -13 -4 -16 -10z"/>
<path d="M3748 4718 c9 -9 9 -15 -1 -27 -11 -14 -10 -14 6 -2 13 10 15 17 6
27 -6 8 -14 14 -17 14 -3 0 -1 -5 6 -12z"/>
<path d="M3783 4699 c-2 -23 3 -25 10 -4 4 8 3 16 -1 19 -4 3 -9 -4 -9 -15z"/>
<path d="M2964 4443 c4 -7 3 -13 -3 -13 -6 0 -18 -25 -27 -56 -42 -146 47
-315 195 -368 75 -27 179 -19 249 19 63 34 99 70 81 80 -7 5 -10 4 -6 -2 7
-12 -30 -46 -43 -38 -5 3 -11 1 -15 -5 -9 -15 -27 -12 -20 3 4 6 -1 3 -9 -7
-9 -11 -16 -18 -17 -15 -5 30 -9 42 -14 47 -4 4 -5 -2 -3 -13 1 -11 -1 -20 -7
-20 -5 0 -16 -4 -22 -8 -9 -6 -11 -3 -6 10 6 16 4 16 -18 -2 -22 -19 -23 -19
-9 -1 14 18 13 19 -2 13 -12 -4 -15 -2 -12 8 3 7 -4 18 -15 24 -25 14 -31 14
-31 0 0 -5 4 -8 8 -5 4 2 14 1 22 -5 12 -7 10 -9 -8 -9 -15 0 -21 -4 -16 -12
4 -7 3 -8 -5 -4 -6 4 -9 11 -6 16 3 5 -3 13 -12 19 -14 8 -15 10 -3 11 13 0
13 2 0 9 -18 12 -31 5 -24 -13 3 -7 -2 -13 -10 -13 -8 0 -12 6 -9 13 2 6 -6
19 -19 28 -12 9 -19 16 -15 16 4 0 -1 8 -10 18 -19 19 -30 21 -50 9 -13 -8
-12 18 2 30 4 5 4 1 0 -7 -8 -13 -7 -13 11 0 10 8 21 15 23 17 2 1 -13 1 -32
-1 -20 -2 -36 -1 -35 3 0 3 -1 8 -2 11 -6 15 -11 49 -11 80 -1 27 -3 31 -9 15
-4 -11 -5 -24 -2 -30 2 -5 -3 -2 -13 7 -18 17 -28 68 -13 68 4 0 8 -8 8 -17 0
-15 2 -15 9 -4 7 10 4 20 -10 32 -19 16 -27 35 -11 25 11 -7 8 31 -3 41 -4 5
-5 2 -1 -4z m33 -178 c0 -8 -4 -12 -9 -9 -5 3 -6 10 -3 15 9 13 12 11 12 -6z
m101 -120 c-3 -3 -9 2 -12 12 -6 14 -5 15 5 6 7 -7 10 -15 7 -18z"/>
<path d="M3020 4275 c0 -5 5 -17 10 -25 5 -8 10 -10 10 -5 0 6 -5 17 -10 25
-5 8 -10 11 -10 5z"/>
<path d="M3130 4151 c0 -5 7 -12 16 -15 14 -5 15 -4 4 9 -14 17 -20 19 -20 6z"/>
<path d="M3270 4086 c0 -2 11 -6 25 -8 13 -3 22 -1 19 3 -5 9 -44 13 -44 5z"/>
<path d="M3579 4023 c-13 -16 -12 -17 4 -4 9 7 17 15 17 17 0 8 -8 3 -21 -13z"/>
<path d="M6982 5114 c10 -10 20 -16 22 -13 3 3 -5 11 -17 18 -21 13 -21 12 -5
-5z"/>
<path d="M6235 7493 c-8 -48 -28 -90 -34 -72 -2 7 1 15 8 17 6 2 11 16 10 30
-1 29 -3 26 -24 -36 -5 -15 -10 -20 -15 -12 -5 8 -9 7 -13 -5 -4 -9 -3 -13 3
-10 6 3 10 2 10 -3 0 -6 8 -8 18 -5 19 5 56 57 49 71 -2 4 7 17 19 30 16 17
24 20 30 11 5 -8 3 -9 -6 -4 -10 6 -12 4 -7 -8 4 -10 2 -16 -6 -14 -7 1 -12
-8 -11 -20 0 -12 -4 -19 -9 -16 -6 4 -8 -3 -5 -15 4 -12 1 -25 -4 -29 -7 -3
-8 -1 -4 5 4 7 2 12 -5 12 -6 0 -9 -8 -6 -19 3 -14 0 -17 -14 -14 -20 6 -49
-12 -49 -29 0 -6 8 -4 18 3 9 7 14 9 10 5 -4 -5 -2 -16 5 -25 10 -13 10 -14
-3 -5 -18 12 -29 12 -51 -1 -15 -9 -16 -11 -1 -25 14 -13 15 -12 9 3 -3 9 -1
19 5 23 7 5 9 -2 6 -20 -3 -14 -1 -26 5 -26 6 0 7 -3 4 -6 -4 -4 -19 1 -34 11
-24 16 -26 16 -14 2 12 -16 8 -22 -12 -18 -5 1 -5 -4 -1 -10 12 -20 10 -70 -3
-81 -7 -6 -13 -18 -13 -27 0 -14 -2 -14 -10 -1 -5 8 -5 19 -1 25 10 13 22 45
16 45 -11 0 -31 -59 -25 -76 8 -21 4 -34 -10 -34 -5 0 -7 8 -3 18 7 18 5 17
-17 -12 -10 -13 -10 -17 -2 -12 8 5 12 1 12 -13 0 -11 -5 -23 -11 -26 -6 -4
-8 -14 -4 -22 5 -14 3 -14 -12 -2 -9 8 -14 9 -10 2 4 -6 3 -14 -2 -18 -6 -3
-7 -13 -4 -22 5 -12 3 -14 -7 -8 -10 6 -12 4 -7 -8 3 -10 2 -17 -3 -17 -6 0
-10 -9 -10 -19 0 -11 -7 -27 -16 -35 -8 -9 -11 -16 -4 -16 7 0 6 -5 -2 -14 -7
-8 -17 -11 -23 -8 -5 3 -3 -3 5 -13 13 -17 13 -18 -1 -13 -15 6 -19 -1 -20
-45 0 -11 -5 -15 -12 -10 -7 3 -3 -4 8 -16 11 -12 15 -22 10 -21 -20 4 -35 0
-35 -11 0 -5 4 -7 10 -4 6 4 7 -1 3 -11 -5 -13 -3 -15 7 -9 8 5 18 1 27 -10 8
-13 13 -14 13 -5 0 23 11 4 15 -26 2 -16 2 -23 -1 -16 -9 20 -23 4 -17 -19 4
-13 8 -17 13 -9 5 8 9 7 13 -4 4 -9 1 -15 -6 -13 -7 1 -11 -4 -9 -11 1 -8 -2
-11 -8 -7 -6 3 -8 10 -5 15 3 5 1 11 -5 15 -6 4 -7 11 -4 17 4 6 1 9 -5 7 -7
-3 -11 -9 -10 -14 1 -6 4 -17 6 -26 4 -14 68 -56 75 -48 6 6 146 -93 186 -131
13 -13 15 -13 10 0 -2 8 1 26 8 39 10 20 11 27 1 33 -9 6 -9 8 0 8 7 0 12 3
11 8 -4 16 15 110 34 170 18 53 23 60 36 50 13 -11 14 -10 3 7 -10 17 -7 28
16 71 47 86 105 186 138 239 171 268 158 235 140 345 -2 14 -4 44 -4 68 l-1
43 -157 -1 c-150 -1 -159 -3 -175 -23 l-17 -22 6 23 c3 12 3 22 0 22 -4 0 -9
-17 -12 -37z m-48 -185 c-3 -8 -6 -5 -6 6 -1 11 2 17 5 13 3 -3 4 -12 1 -19z
m-26 -45 c8 -9 9 -14 3 -10 -14 8 -27 -20 -17 -35 3 -6 1 -8 -5 -4 -8 5 -10
38 -3 64 2 6 10 1 22 -15z m-220 -436 c-10 -9 -11 -8 -5 6 3 10 9 15 12 12 3
-3 0 -11 -7 -18z m247 -329 c-2 -7 3 -12 10 -10 8 1 11 -2 7 -8 -5 -8 -11 -8
-21 1 -7 6 -11 15 -8 20 8 13 14 11 12 -3z"/>
<path d="M6759 7503 c-5 -14 -7 -33 -4 -41 5 -13 8 -13 23 1 9 9 42 27 72 41
l55 26 -68 0 c-64 0 -68 -1 -78 -27z"/>
<path d="M6183 7465 c0 -8 4 -12 9 -9 5 3 6 10 3 15 -9 13 -12 11 -12 -6z"/>
<path d="M5279 7437 c6 -8 7 -18 3 -22 -4 -5 -1 -5 6 -1 10 6 10 11 1 22 -6 8
-14 14 -16 14 -3 0 0 -6 6 -13z"/>
<path d="M6155 7379 c-4 -6 -5 -12 -2 -15 2 -3 7 2 10 11 7 17 1 20 -8 4z"/>
<path d="M5043 7297 c0 -8 6 -14 14 -14 9 0 10 4 2 14 -6 7 -12 13 -14 13 -1
0 -2 -6 -2 -13z"/>
<path d="M6783 7187 c0 -8 6 -14 14 -14 9 0 10 4 2 14 -6 7 -12 13 -14 13 -1
0 -2 -6 -2 -13z"/>
<path d="M5177 7145 c3 -8 9 -12 14 -9 12 7 11 11 -5 17 -10 4 -13 1 -9 -8z"/>
<path d="M5859 7123 c-13 -16 -12 -17 4 -4 9 7 17 15 17 17 0 8 -8 3 -21 -13z"/>
<path d="M5046 7122 c-3 -5 1 -9 9 -9 8 0 12 4 9 9 -3 4 -7 8 -9 8 -2 0 -6 -4
-9 -8z"/>
<path d="M6668 7082 c-11 -15 -11 -15 2 -6 8 6 23 10 33 8 11 -1 16 0 13 4
-13 12 -36 10 -48 -6z"/>
<path d="M5839 7063 c-13 -16 -12 -17 4 -4 16 13 21 21 13 21 -2 0 -10 -8 -17
-17z"/>
<path d="M5025 7050 c3 -5 8 -10 11 -10 2 0 4 5 4 10 0 6 -5 10 -11 10 -5 0
-7 -4 -4 -10z"/>
<path d="M5812 7020 c-7 -12 -10 -25 -7 -30 3 -5 1 -11 -5 -15 -13 -8 -13 -25
1 -25 5 0 8 4 4 9 -3 5 -1 12 4 16 6 3 7 13 4 22 -4 9 -2 14 3 10 6 -3 11 3
11 14 2 24 1 24 -15 -1z"/>
<path d="M6617 7030 c9 -9 9 -17 2 -26 -7 -8 -7 -14 1 -19 5 -3 10 -5 11 -3 7
27 4 39 -9 50 -14 10 -15 10 -5 -2z"/>
<path d="M6650 7029 c0 -5 5 -9 10 -9 6 0 12 0 15 0 14 0 8 13 -7 16 -10 1
-18 -2 -18 -7z"/>
<path d="M6570 7016 c0 -2 8 -10 18 -17 15 -13 16 -12 3 4 -13 16 -21 21 -21
13z"/>
<path d="M6585 6970 c-4 -6 -11 -7 -17 -4 -7 4 -8 2 -4 -5 6 -9 11 -9 22 0 14
11 18 19 10 19 -3 0 -8 -5 -11 -10z"/>
<path d="M6515 6931 c-3 -5 -1 -12 5 -16 6 -4 7 -11 4 -17 -4 -7 -2 -8 5 -4 8
6 9 12 2 20 -6 7 -8 16 -4 19 3 4 4 7 0 7 -3 0 -8 -4 -12 -9z"/>
<path d="M5740 6840 c-11 -7 -11 -10 -2 -10 8 0 10 -5 6 -12 -4 -7 -3 -9 1 -5
7 6 17 37 12 37 -1 0 -9 -5 -17 -10z"/>
<path d="M5717 6791 c-4 -17 -3 -21 5 -13 5 5 8 16 6 23 -3 8 -7 3 -11 -10z"/>
<path d="M5838 6773 c-5 -10 -3 -23 7 -47 5 -12 3 -27 -5 -40 -12 -19 -12 -20
3 -7 10 7 17 22 17 33 0 10 4 17 9 14 13 -9 8 -32 -14 -56 -10 -11 -15 -23
-12 -27 4 -3 7 0 7 7 0 9 6 8 20 -5 23 -21 60 -30 60 -16 0 6 -5 13 -12 17 -7
5 1 17 23 36 19 16 29 27 22 24 -6 -4 -16 2 -22 11 -5 10 -13 14 -17 10 -5 -5
-2 -12 6 -17 8 -5 11 -12 8 -16 -8 -7 -55 66 -50 79 1 5 -2 6 -8 2 -8 -5 -8
-11 0 -20 7 -8 7 -15 1 -19 -5 -3 -12 0 -14 6 -4 10 -6 10 -6 0 -1 -7 -6 -10
-11 -7 -8 5 -8 11 0 20 7 8 7 15 1 19 -5 4 -11 3 -13 -1z m74 -67 c15 -21 16
-26 3 -36 -11 -9 -12 -16 -5 -26 15 -17 -12 -13 -34 5 -14 12 -15 16 -2 30 7
9 12 24 11 34 -4 24 7 21 27 -7z"/>
<path d="M5893 6705 c4 -4 0 -16 -8 -25 -14 -15 -14 -18 2 -31 10 -7 15 -9 10
-4 -4 4 0 16 8 25 14 15 14 18 -2 31 -10 7 -15 9 -10 4z m17 -19 c0 -2 -8 -10
-17 -17 -16 -13 -17 -12 -4 4 13 16 21 21 21 13z"/>
<path d="M5786 6761 c-3 -5 -19 -7 -35 -6 -18 1 -29 -2 -28 -9 1 -6 -4 -10
-10 -8 -7 1 -12 -1 -12 -5 1 -5 1 -15 0 -23 -1 -13 -3 -13 -12 0 -9 13 -10 12
-5 -2 3 -11 -2 -22 -15 -29 -11 -6 -18 -13 -15 -16 3 -4 1 -12 -4 -18 -8 -9
-4 -12 12 -11 13 1 30 -3 38 -8 13 -10 13 -9 1 7 -12 15 -9 21 12 18 4 0 6 2
6 7 -4 25 2 34 15 23 10 -8 16 -9 21 -1 6 9 -1 14 -17 11 -5 0 -8 6 -8 14 0 8
0 18 0 22 0 4 7 8 15 9 12 2 15 -3 11 -14 -5 -15 -4 -15 8 1 12 16 14 16 20 1
5 -13 9 -14 20 -5 11 10 17 8 25 -6 6 -10 11 -13 11 -7 0 6 -10 19 -22 30 -12
10 -18 14 -15 7 4 -6 3 -14 -2 -17 -14 -9 -21 20 -8 33 6 6 8 11 5 11 -4 0 -9
-4 -12 -9z m-83 -89 c-11 -14 -26 -27 -34 -30 -11 -3 -11 -2 1 7 9 7 10 11 3
11 -6 0 0 12 15 28 32 32 43 21 15 -16z"/>
<path d="M5806 6693 c-6 -14 -5 -15 5 -6 7 7 10 15 7 18 -3 3 -9 -2 -12 -12z"/>
<path d="M5779 6667 c6 -8 7 -18 3 -22 -4 -5 -1 -5 6 -1 10 6 10 11 1 22 -6 8
-14 14 -16 14 -3 0 0 -6 6 -13z"/>
<path d="M5703 6566 c-94 -35 -168 -83 -248 -161 -114 -112 -187 -238 -321
-550 -78 -184 -155 -338 -308 -617 l-108 -197 -86 -31 c-48 -17 -148 -54 -223
-81 l-136 -50 -23 -82 c-13 -45 -56 -206 -96 -357 l-73 -275 26 -40 c15 -22
44 -61 66 -87 l39 -46 -47 -112 -48 -112 52 -52 51 -52 -35 -34 c-19 -19 -35
-39 -35 -46 0 -6 9 -33 21 -59 24 -53 20 -63 -16 -47 -14 7 -31 12 -38 12 -7
0 -45 -29 -85 -64 -64 -56 -80 -65 -125 -71 -94 -12 -204 -32 -216 -39 -6 -4
-11 -16 -11 -27 0 -24 -10 -24 -65 2 -61 29 -97 73 -130 160 -16 41 -41 97
-57 125 -16 29 -31 75 -35 103 -5 48 -8 52 -50 72 -88 43 -203 -1 -267 -102
-45 -72 -39 -190 17 -317 55 -122 55 -124 -1 -151 -26 -12 -83 -47 -128 -77
l-81 -55 -81 33 c-71 29 -83 38 -100 73 -30 61 -97 131 -144 149 -50 21 -100
15 -174 -20 -82 -38 -82 -40 -36 -146 58 -134 57 -129 17 -155 -52 -34 -71
-68 -56 -100 33 -71 184 -315 204 -327 12 -8 49 -17 82 -21 72 -8 95 -19 95
-45 0 -45 17 -59 198 -166 l73 -43 103 13 c57 8 133 12 168 9 60 -5 67 -3 118
29 50 32 157 78 180 78 6 0 10 -36 10 -82 0 -162 43 -438 92 -588 17 -53 61
-155 73 -168 2 -2 36 11 75 28 39 17 73 30 74 28 1 -2 17 -55 36 -118 52 -179
81 -222 156 -236 48 -9 287 51 322 81 21 18 30 20 52 12 21 -8 55 -5 141 12
151 29 171 36 203 70 33 34 56 31 56 -8 1 -14 7 -37 14 -51 10 -18 11 -30 4
-44 -13 -24 -5 -99 17 -153 25 -63 56 -73 195 -69 63 2 128 9 144 15 33 13 71
3 115 -31 35 -27 178 -26 213 2 46 36 73 41 136 25 44 -11 107 -13 277 -9 121
2 231 4 245 3 14 -1 131 -2 260 -3 226 -1 237 0 278 22 60 32 81 81 82 190 0
62 3 82 14 82 40 0 423 -81 591 -125 190 -50 274 -44 344 23 33 31 44 55 75
155 35 111 38 117 58 106 28 -15 40 -1 77 92 59 148 96 336 113 577 7 99 16
162 23 162 18 0 161 -66 195 -90 27 -20 40 -22 95 -17 36 2 110 -1 167 -9
l103 -13 45 26 c25 14 84 50 133 80 80 51 88 58 93 93 7 45 9 46 97 55 55 6
72 12 95 36 25 26 181 287 197 330 6 15 -67 99 -86 99 -16 0 -9 23 36 129 30
70 41 108 35 116 -17 21 -114 62 -162 69 -31 5 -57 2 -80 -7 -44 -19 -102 -79
-139 -143 -27 -48 -35 -54 -107 -83 l-79 -32 -85 59 c-47 32 -105 66 -127 77
-39 17 -41 21 -35 49 3 17 22 67 42 111 64 143 56 266 -23 347 -49 50 -99 72
-166 72 -74 1 -104 -19 -113 -76 -4 -24 -27 -88 -52 -143 -90 -200 -94 -207
-154 -242 -65 -39 -78 -41 -86 -8 -7 29 -6 29 -159 50 -115 17 -122 19 -160
55 -22 20 -57 49 -77 65 -34 24 -41 26 -69 16 -18 -6 -34 -9 -36 -7 -2 2 6 29
18 61 l22 58 -37 34 -36 35 49 55 49 55 -44 105 c-24 58 -44 108 -44 111 0 4
27 41 60 82 36 44 60 84 60 98 0 37 -180 696 -193 708 -7 6 -104 44 -217 84
-113 40 -210 78 -217 84 -39 36 -327 593 -428 826 -197 457 -317 605 -568 698
-73 28 -126 27 -204 -2z m230 -173 c110 -57 213 -156 274 -264 23 -40 82 -173
131 -294 50 -121 121 -285 160 -365 71 -149 120 -266 168 -406 l28 -81 -22
-28 c-24 -30 -24 -31 -42 53 -17 74 -51 160 -173 432 -96 217 -144 333 -211
515 -42 113 -95 193 -191 291 -83 83 -185 156 -238 169 -50 13 -237 -129 -328
-248 -65 -86 -101 -156 -148 -290 -36 -104 -113 -286 -217 -515 -77 -171 -123
-291 -144 -381 l-13 -53 -22 28 -22 28 22 66 c47 136 90 240 170 410 46 96
115 256 155 355 114 285 174 392 269 478 86 78 246 162 286 150 11 -3 60 -26
108 -50z m209 -435 c25 -22 31 -36 33 -76 2 -36 12 -63 38 -105 65 -101 74
-246 18 -286 l-28 -20 19 39 c40 81 16 228 -50 303 -10 12 -15 33 -13 64 l2
46 -108 105 c-94 91 -97 95 -24 31 46 -41 97 -86 113 -101z m-345 152 c20 0
23 -4 18 -22 -10 -34 -52 -68 -85 -68 -40 0 -44 -13 -14 -49 18 -21 38 -33 65
-37 39 -7 40 -8 37 -43 -2 -29 -8 -37 -25 -39 -20 -3 -23 1 -23 27 0 29 -2 31
-26 25 -19 -5 -46 3 -96 27 l-69 33 -45 -23 c-25 -14 -50 -33 -56 -44 -9 -18
-8 -19 13 -13 52 15 85 17 109 7 l25 -10 -30 0 c-42 -1 -94 -36 -107 -71 -5
-17 -13 -30 -17 -30 -4 0 -17 -9 -30 -21 -25 -24 -21 -39 5 -18 16 13 16 12 6
-8 -20 -37 -13 -48 13 -23 14 14 47 30 73 38 52 15 162 28 162 19 0 -22 -29
-61 -57 -78 -41 -26 -60 -60 -67 -125 l-5 -49 25 32 c24 30 27 31 49 17 12 -8
41 -17 65 -19 23 -2 48 -10 56 -16 11 -9 14 -7 14 9 0 11 7 25 15 32 13 11 15
6 15 -33 0 -40 2 -45 19 -40 21 5 81 -25 81 -41 0 -5 -8 -2 -18 7 -20 18 -49
22 -71 8 -7 -5 -25 -4 -41 2 -25 10 -34 6 -91 -37 -40 -29 -71 -45 -82 -42
-11 3 -17 0 -14 -7 6 -20 61 -19 116 2 28 12 73 21 99 21 47 0 132 -26 132
-41 0 -20 -37 -27 -83 -16 -40 9 -61 7 -123 -8 l-74 -18 21 -23 c17 -18 22
-36 22 -78 0 -31 1 -56 2 -56 1 0 16 5 34 11 43 15 93 4 125 -28 37 -36 34
-59 -10 -73 -51 -17 -98 -7 -161 35 -67 44 -100 57 -125 49 -17 -5 -15 -9 19
-32 37 -26 37 -27 13 -30 -14 -1 -43 3 -65 11 l-40 14 -52 151 c-52 150 -52
152 -30 152 13 0 31 6 41 13 16 12 15 14 -21 25 -21 6 -49 21 -62 33 -22 21
-23 28 -19 110 5 78 9 94 44 156 23 40 42 88 46 117 7 53 4 50 143 175 l70 63
59 -6 c32 -3 70 -6 83 -6z m273 -154 c0 -2 -11 -1 -24 1 -14 3 -48 -8 -84 -26
-34 -17 -65 -31 -69 -31 -11 0 105 68 124 73 16 3 53 -9 53 -17z m-460 -126
c-8 -5 -10 -10 -5 -10 10 0 -26 -21 -59 -33 -20 -8 -20 -8 0 14 18 21 48 37
69 38 6 0 3 -4 -5 -9z m70 -10 c13 -9 13 -10 0 -10 -8 0 -22 5 -30 10 -13 9
-13 10 0 10 8 0 22 -5 30 -10z m285 0 c-3 -5 -14 -10 -23 -10 -15 0 -15 2 -2
10 20 13 33 13 25 0z m100 -10 c25 -28 17 -30 -29 -10 -23 11 -33 20 -25 23
25 10 36 7 54 -13z m-266 -42 c-6 -13 -18 -31 -27 -40 -12 -14 -12 -20 -2 -33
10 -12 9 -15 -7 -15 -25 0 -63 -27 -63 -46 0 -19 19 -18 42 3 15 14 18 14 18
1 0 -8 -9 -23 -20 -33 -17 -15 -24 -16 -45 -7 -34 16 -31 36 11 80 20 20 42
49 50 64 11 22 38 46 52 48 1 0 -3 -10 -9 -22z m254 -14 c9 -3 17 -10 17 -15
0 -12 -35 -29 -62 -29 -31 0 -91 37 -82 51 6 11 93 6 127 -7z m-113 -131 c0
-18 -5 -23 -27 -23 -24 1 -25 2 -10 11 21 12 22 32 1 50 -8 7 -22 26 -31 43
-14 27 -11 25 25 -14 24 -25 42 -54 42 -67z m78 -74 c16 -26 18 -38 10 -68
-15 -54 -28 -61 -28 -15 0 21 -4 53 -9 71 -8 26 -6 43 5 43 1 0 11 -14 22 -31z
m202 -128 c0 -18 -102 -302 -107 -297 -7 6 91 305 100 306 4 0 7 -4 7 -9z
m-687 -413 c3 -18 9 -64 12 -103 l6 -70 -20 25 c-17 20 -21 40 -21 103 0 78
13 104 23 45z m570 -43 c5 -60 2 -74 -14 -95 l-20 -25 6 80 c6 78 13 120 20
113 2 -2 6 -35 8 -73z m-369 45 c36 -13 66 -116 65 -224 l-1 -81 -34 70 c-18
39 -40 97 -48 130 -31 129 -32 124 18 105z m-21 -245 c3 -11 15 -49 26 -84
l20 -64 -39 38 c-31 31 -45 56 -69 134 -17 53 -33 121 -36 151 l-6 55 49 -105
c27 -58 51 -114 55 -125z m256 104 c-20 -71 -88 -224 -96 -215 -2 2 7 38 21
79 28 82 87 220 92 214 2 -2 -6 -37 -17 -78z m-1113 22 c-3 -4 -27 -16 -53
-26 -92 -35 -255 -115 -313 -155 -47 -32 -60 -47 -64 -73 -29 -186 -38 -243
-53 -309 -10 -43 -22 -78 -28 -78 -6 0 -24 -25 -39 -56 l-29 -56 -23 24 -24
24 25 84 c29 97 65 245 90 370 9 47 18 93 21 102 3 11 45 30 127 57 249 83
377 115 363 92z m2064 -27 c47 -14 140 -43 206 -66 l122 -40 22 -112 c12 -61
40 -181 62 -266 22 -85 42 -165 45 -178 4 -15 -1 -28 -13 -37 -27 -20 -29 -19
-49 26 -10 22 -27 46 -37 53 -21 15 -56 168 -79 335 l-12 93 -51 33 c-60 38
-181 99 -286 145 -136 59 -105 65 70 14z m-2114 -444 c52 -31 106 -93 133
-155 7 -16 37 -172 67 -345 69 -407 150 -811 193 -966 13 -48 14 -54 1 -54
-12 0 -71 115 -93 181 -16 47 -40 149 -102 444 -81 384 -171 768 -195 831 -5
12 -23 38 -40 58 -39 44 -33 45 36 6z m2047 8 c-11 -13 -28 -37 -37 -55 -28
-56 -94 -335 -236 -998 -28 -132 -56 -253 -62 -270 -28 -83 -83 -195 -95 -195
-7 0 -13 1 -13 3 0 2 16 73 36 158 52 226 97 456 154 789 63 369 67 384 99
444 27 51 90 111 138 132 39 17 39 17 16 -8z m-2474 -345 c-8 -97 -18 -139
-56 -226 -24 -54 -27 -56 -44 -41 -16 15 -15 23 31 157 53 155 68 197 72 197
2 0 0 -39 -3 -87z m2921 -93 c50 -145 54 -161 39 -175 -14 -15 -18 -11 -44 46
-15 35 -34 86 -41 113 -18 67 -29 176 -18 176 5 0 34 -72 64 -160z m-2858
-235 c2 -119 -16 -193 -49 -206 -88 -33 -97 -15 -50 97 18 43 44 116 58 161
20 67 25 78 32 60 5 -12 9 -62 9 -112z m2758 112 c0 -22 60 -198 86 -251 28
-58 24 -91 -9 -82 -12 4 -34 9 -48 12 -29 7 -43 39 -55 131 -8 62 4 203 17
203 5 0 9 -6 9 -13z m-3889 -268 c4 -25 23 -77 43 -117 20 -39 47 -100 60
-136 36 -95 50 -111 156 -181 110 -72 129 -99 137 -197 l6 -59 -27 11 c-41 15
-142 12 -184 -6 l-37 -16 62 -13 c84 -18 156 -59 210 -120 l45 -50 -6 65 c-3
36 -5 81 -4 100 2 19 2 68 2 108 0 46 3 72 10 72 6 0 21 3 33 6 19 5 24 -1 42
-63 27 -92 38 -168 40 -282 l2 -96 -31 -17 c-38 -22 -50 -22 -50 -4 0 8 -8 24
-18 36 -17 21 -17 21 -18 -20 -1 -23 -8 -48 -15 -55 -8 -7 -59 -21 -114 -30
-181 -29 -293 -67 -380 -129 -28 -19 -40 -21 -90 -11 -11 2 -23 4 -27 4 -4 1
-40 44 -80 96 l-73 94 9 91 c5 49 13 90 17 90 5 0 6 7 3 15 -14 35 41 4 61
-35 19 -37 19 -90 0 -117 -17 -24 -6 -38 23 -29 22 7 62 -49 62 -88 l0 -27 29
20 c16 12 35 21 43 21 7 1 2 10 -13 23 -40 34 -71 97 -76 151 -7 86 -56 146
-117 146 -31 -1 -83 -23 -78 -34 1 -3 2 -15 2 -25 0 -18 -3 -18 -42 -6 -24 7
-60 28 -80 48 -41 38 -89 52 -148 42 -36 -6 -39 -5 -55 29 -22 46 -88 105
-126 113 -17 3 -33 13 -36 22 -2 9 -16 47 -30 85 -21 56 -23 70 -12 77 44 27
114 -7 159 -78 31 -49 37 -81 20 -114 -14 -24 11 -27 35 -3 14 15 24 13 118
-21 56 -21 128 -51 160 -67 59 -29 59 -29 52 -6 -4 13 -14 32 -21 42 -12 18
-8 23 60 62 41 23 95 58 121 78 26 19 62 38 81 42 37 7 42 22 25 82 -8 27 -6
36 15 62 14 16 41 35 59 42 19 6 35 16 35 20 0 13 -93 9 -122 -6 l-27 -14 -32
76 c-39 94 -43 158 -13 199 28 37 61 54 104 51 33 -3 35 -5 41 -49z m5099 36
c65 -34 77 -118 31 -230 -23 -55 -33 -69 -47 -67 -76 12 -106 14 -131 7 -27
-7 -26 -7 21 -23 71 -24 89 -53 78 -125 -8 -53 -7 -57 10 -57 24 0 45 -11 143
-75 44 -29 97 -61 117 -71 l37 -17 -19 -28 c-11 -15 -20 -34 -20 -43 0 -13 6
-13 38 5 20 12 90 42 155 66 109 41 120 43 136 29 21 -19 62 -23 43 -4 -22 22
-14 82 17 124 42 58 65 75 108 81 51 7 68 -11 48 -50 -8 -15 -22 -52 -31 -82
-14 -44 -22 -55 -39 -55 -40 0 -144 -100 -145 -139 0 -10 -10 -12 -42 -7 -60
8 -115 -7 -152 -43 -17 -16 -50 -37 -73 -45 -41 -14 -41 -14 -48 12 -8 33 -32
51 -68 52 -66 0 -114 -55 -124 -144 -5 -51 -52 -144 -75 -152 -21 -6 -24 -24
-5 -24 8 0 22 -9 32 -20 22 -25 34 -26 29 -2 -2 9 6 35 19 57 20 34 28 40 51
37 24 -3 27 0 20 15 -4 10 -10 42 -12 70 -3 48 -1 55 27 84 17 16 35 28 40 25
5 -3 14 -51 21 -106 l12 -100 -43 -58 c-82 -110 -100 -126 -148 -137 -43 -10
-48 -9 -95 22 -78 51 -195 91 -336 113 -36 6 -84 15 -107 21 -38 10 -43 15
-48 48 -4 20 -8 43 -9 51 -2 8 -10 -2 -20 -22 -19 -43 -17 -43 -56 -23 -33 17
-33 17 -30 165 2 88 21 197 45 258 15 36 21 43 39 38 12 -3 26 -6 31 -6 12 0
13 -203 1 -272 -12 -71 0 -74 55 -14 56 62 109 91 201 110 l63 14 -37 16 c-41
18 -143 21 -182 6 -26 -9 -26 -9 -26 43 1 88 26 129 122 190 105 68 138 106
173 198 16 41 43 102 61 137 18 34 36 85 40 112 6 49 7 50 41 50 19 0 47 -7
63 -15z m-4001 -273 c45 -151 72 -387 54 -474 -7 -39 -23 -35 -23 5 0 18 -10
66 -21 107 -12 41 -27 107 -34 145 -14 74 -37 133 -80 202 l-26 42 48 25 c26
13 51 22 55 20 4 -3 16 -35 27 -72z m2883 50 c44 -26 45 -28 31 -47 -31 -41
-82 -159 -88 -204 -3 -25 -16 -80 -27 -121 -12 -41 -24 -94 -27 -118 -4 -23
-10 -41 -16 -40 -17 5 -11 253 8 343 21 95 57 215 66 215 3 0 27 -13 53 -28z
m-3098 -105 c27 -19 28 -21 10 -28 -35 -14 -53 -9 -74 21 -40 56 -10 59 64 7z
m3310 35 c2 -4 -5 -22 -16 -40 -20 -32 -36 -37 -72 -23 -17 7 -14 11 25 39 47
33 55 36 63 24z m-3278 -107 c-1 -8 -5 -17 -9 -21 -3 -4 3 -20 14 -35 11 -16
17 -29 12 -29 -11 0 -40 20 -30 20 5 0 -2 15 -14 33 -19 26 -20 29 -4 17 17
-14 18 -13 12 2 -3 9 -1 19 6 22 7 2 13 5 14 5 1 1 0 -6 -1 -14z m-158 -7 c13
-17 0 -51 -21 -54 -9 -1 -17 2 -17 7 0 6 -10 1 -22 -11 -12 -11 -26 -20 -30
-20 -8 0 -21 -9 -54 -38 -12 -12 -18 -10 -35 12 -37 48 -54 50 -95 14 -29 -25
-36 -28 -30 -13 5 11 11 28 13 38 3 9 15 19 27 22 11 3 66 16 121 29 118 29
129 30 143 14z m3615 -13 c151 -35 145 -32 163 -67 20 -39 13 -44 -16 -13 -31
33 -62 32 -96 -4 l-28 -30 -37 33 c-21 17 -58 42 -84 55 -37 19 -44 25 -34 37
14 17 1 19 132 -11z m-3391 -3 c14 -11 15 -18 7 -28 -6 -8 -16 -11 -23 -7 -7
4 -7 1 1 -7 9 -10 15 -10 26 -2 17 14 28 6 20 -16 -4 -10 -2 -13 5 -8 7 4 9
-2 6 -20 -3 -19 -1 -24 8 -18 7 4 10 4 6 0 -3 -4 -9 -6 -12 -4 -3 2 -12 -6
-21 -17 -13 -17 -14 -17 -9 -2 7 19 -15 21 -28 2 -5 -6 -8 -5 -8 3 0 8 -5 10
-12 6 -9 -5 -8 -2 1 10 11 13 12 19 2 29 -10 9 -11 8 -6 -5 4 -10 3 -18 -3
-18 -17 0 -22 28 -6 34 13 5 12 10 -5 34 -30 43 11 70 51 34z m-206 -55 c9
-43 11 -50 6 -37 -3 10 -10 3 -18 -20 -12 -31 -13 -31 -8 -6 5 26 3 28 -10 17
-9 -8 -16 -10 -16 -6 0 5 -9 0 -20 -10 -11 -10 -20 -14 -20 -9 0 5 -10 -2 -23
-16 -12 -14 -19 -21 -14 -16 11 15 8 26 -5 22 -7 -1 -10 -1 -5 1 4 3 5 9 1 14
-3 5 0 8 7 7 7 -2 13 6 13 17 0 21 39 49 68 50 9 0 20 3 24 8 8 8 17 2 20 -16z
m-99 -122 c0 -8 -4 -12 -9 -9 -5 3 -6 10 -3 15 9 13 12 11 12 -6z m-1446 -118
c50 -33 81 -100 76 -164 -3 -41 -1 -50 9 -42 15 12 19 5 28 -43 6 -31 4 -36
-11 -33 -10 2 -29 4 -41 4 -27 1 -74 47 -103 100 -11 20 -35 61 -54 91 -19 30
-34 60 -35 65 0 14 51 44 76 45 12 0 36 -10 55 -23z m6652 -5 c17 -17 14 -23
-53 -132 -39 -63 -78 -121 -87 -127 -9 -7 -34 -13 -56 -13 l-39 0 7 38 c8 46
11 48 31 31 15 -12 16 -11 8 11 -25 74 21 180 91 211 27 12 76 2 98 -19z
m-6389 -152 c32 -38 42 -90 29 -147 -6 -24 -7 -46 -3 -48 5 -3 22 6 39 21 33
27 71 26 71 -3 0 -8 24 -52 54 -98 l54 -83 -31 -5 c-24 -3 -54 7 -127 45 -52
28 -101 55 -107 60 -11 9 -70 183 -89 261 -6 26 -5 27 39 27 38 0 49 -5 71
-30z m6118 25 c10 -10 -67 -262 -86 -281 -6 -7 -50 -33 -98 -58 -70 -38 -96
-47 -128 -44 l-39 3 50 79 c28 43 55 90 60 102 10 29 26 30 59 4 42 -33 48
-26 43 45 -9 103 24 155 98 155 19 0 38 -2 41 -5z m-3192 -35 c0 -17 -219
-669 -236 -702 l-15 -29 105 3 c82 2 106 0 106 -10 0 -11 -31 -143 -34 -149
-1 -1 -44 -5 -96 -8 -52 -3 -159 -11 -238 -16 -79 -6 -145 -9 -147 -7 -2 2 41
118 96 257 55 139 120 307 144 372 l43 119 -109 0 -108 0 14 43 c8 23 19 61
25 84 l11 42 137 3 c75 2 174 4 220 6 53 2 82 -1 82 -8z m470 -187 c50 -187
162 -581 194 -686 l15 -48 -77 6 c-164 12 -159 11 -166 58 -10 64 -14 67 -97
70 l-74 2 -9 -52 -9 -53 -117 0 -118 0 14 53 c21 80 117 530 150 700 l28 147
107 0 106 0 53 -197z m414 177 c145 -8 219 -15 240 -25 61 -29 72 -61 111
-313 50 -319 49 -327 -13 -341 l-29 -6 79 -159 c43 -87 77 -160 76 -161 -2 -2
-55 6 -118 18 l-115 20 -69 151 c-60 131 -92 184 -102 173 -2 -2 3 -63 11
-137 8 -74 15 -142 15 -150 0 -14 -12 -14 -115 -1 -85 11 -115 18 -115 28 0 8
-9 114 -20 236 -11 122 -22 254 -25 292 -3 39 -10 115 -15 170 -17 187 -19
215 -12 215 4 0 101 -5 216 -10z m-1434 -12 c0 -14 -54 -642 -69 -801 -5 -55
-11 -101 -13 -103 -6 -5 -221 -35 -225 -30 -2 2 3 59 12 127 8 68 31 264 50
434 42 378 42 373 63 378 9 3 54 5 100 6 59 1 82 -2 82 -11z m-2224 -37 c1
-11 -2 -21 -7 -21 -13 0 -39 30 -39 45 0 24 45 1 46 -24z m1960 22 c-3 -10
-37 -124 -75 -253 -80 -271 -127 -426 -170 -559 -16 -51 -33 -106 -36 -122 -4
-16 -7 -29 -8 -29 -8 0 -168 -30 -189 -35 l-28 -7 -2 247 -3 247 -88 -266
c-83 -250 -90 -266 -115 -272 -15 -3 -61 -14 -102 -25 -41 -10 -76 -16 -78
-14 -5 4 15 569 28 795 6 91 10 181 10 202 0 40 -13 36 152 54 l56 6 -3 -38
c-3 -22 -9 -118 -16 -214 -6 -96 -14 -210 -18 -253 -4 -42 -4 -74 0 -70 4 5
47 139 97 298 l90 290 71 5 71 5 0 -274 c0 -151 2 -272 4 -270 4 4 55 193 118
436 l31 122 61 4 c149 8 148 8 142 -10z m3787 -6 c-3 -13 -13 -29 -24 -35 -17
-11 -19 -9 -19 12 0 14 8 30 18 35 26 15 30 13 25 -12z m-1449 -8 c190 -14
236 -29 270 -88 18 -32 196 -884 196 -940 0 -39 -27 -61 -74 -60 -23 0 -140
24 -261 53 l-220 53 -13 74 c-35 209 -142 890 -142 909 0 19 4 21 38 16 20 -3
113 -11 206 -17z m-2075 -1060 c20 -58 18 -59 -70 -59 l-80 0 3 -47 3 -48 72
-5 c39 -3 75 -9 80 -13 13 -14 9 -215 -5 -229 -9 -9 -53 -14 -126 -16 l-113
-4 -7 25 c-3 14 -9 32 -12 41 -5 14 4 16 70 16 l77 0 -3 53 -3 52 -65 3 c-35
2 -70 8 -77 14 -9 7 -13 41 -13 108 0 132 5 137 167 139 l91 1 11 -31z m380 7
c20 -18 21 -29 21 -203 0 -170 -1 -184 -20 -203 -13 -13 -33 -20 -60 -20 -33
0 -40 -3 -40 -20 0 -17 -7 -20 -50 -20 -43 0 -50 3 -50 20 0 16 -7 20 -34 20
-19 0 -43 8 -55 18 -21 16 -22 23 -19 212 l3 195 35 12 c22 8 75 12 142 10 88
-2 110 -6 127 -21z m201 -161 l0 -185 35 0 35 0 0 185 0 186 63 -3 62 -3 3
-198 2 -197 -24 -25 c-24 -24 -31 -25 -146 -25 -169 0 -160 -14 -160 245 l0
205 65 0 65 0 0 -185z m532 -42 l56 -223 -63 0 c-59 0 -63 2 -69 25 -6 22 -12
25 -50 25 -39 0 -45 -3 -48 -22 -3 -21 -9 -23 -65 -26 -41 -2 -63 1 -63 8 0 9
42 176 101 403 l10 38 67 -3 67 -3 57 -222z m391 208 c15 -12 17 -39 17 -207
0 -240 13 -224 -182 -224 l-138 0 0 218 c0 120 3 222 7 226 14 14 278 2 296
-13z"/>
<path d="M4259 3218 c-7 -23 -6 -45 3 -55 6 -7 7 -13 3 -13 -4 0 -2 -7 5 -15
6 -8 9 -18 6 -23 -3 -5 2 -9 10 -9 8 0 13 6 10 13 -3 8 -1 16 5 19 5 4 9 3 8
-2 -1 -4 -1 -15 0 -23 1 -13 2 -13 11 0 5 9 5 19 -1 27 -6 7 -8 18 -4 25 4 7
0 5 -8 -4 -13 -17 -15 -17 -31 1 -14 15 -15 24 -7 38 10 17 10 17 11 0 0 -10
5 -15 10 -12 8 5 7 11 -1 21 -10 12 -27 19 -30 12z"/>
<path d="M4013 3144 c-3 -8 -9 -11 -14 -8 -5 3 -6 -3 -2 -12 5 -13 3 -15 -8
-9 -8 4 -11 5 -7 0 4 -4 2 -15 -5 -24 -11 -14 -10 -14 6 -2 9 7 17 10 17 6 0
-5 9 0 21 11 12 10 22 17 23 15 0 -3 10 0 21 6 11 6 16 15 12 19 -13 14 -58
12 -64 -2z m3 -32 c-15 -15 -15 -15 -4 10 7 15 15 23 17 17 2 -6 -4 -18 -13
-27z m54 33 c0 -2 -6 -8 -13 -14 -10 -8 -14 -7 -14 2 0 8 6 14 14 14 7 0 13
-1 13 -2z"/>
<path d="M6041 2323 c-6 -48 -14 -116 -17 -150 l-7 -63 51 0 c37 0 50 4 47 13
-2 6 -6 23 -9 37 -10 60 -48 245 -51 248 -1 1 -7 -37 -14 -85z"/>
<path d="M6625 2501 c10 -118 26 -245 31 -250 2 -3 32 -7 65 -9 l60 -5 -5 34
c-3 19 -13 90 -22 159 -8 69 -18 128 -22 132 -4 3 -31 8 -60 10 l-53 5 6 -76z"/>
<path d="M7243 2504 c3 -11 9 -41 12 -69 7 -51 77 -446 96 -542 l10 -52 50
-10 c72 -16 72 -16 66 27 -6 39 -101 553 -113 610 -8 39 -6 38 -73 47 -49 7
-53 6 -48 -11z"/>
<path d="M5379 1580 c0 -5 -1 -66 -1 -135 0 -69 1 -129 1 -135 1 -5 17 -10 36
-10 l35 0 0 145 0 145 -35 0 c-19 0 -35 -4 -36 -10z"/>
<path d="M6156 1448 c-4 -24 -9 -57 -12 -74 -6 -32 -6 -32 47 -25 6 1 -18 131
-25 138 -2 2 -6 -16 -10 -39z"/>
<path d="M6510 1445 l0 -145 35 0 35 0 0 145 0 145 -35 0 -35 0 0 -145z"/>
<path d="M7176 6521 c-3 -4 3 -16 13 -25 13 -11 21 -14 26 -7 6 11 5 12 -17
15 -7 1 -12 7 -10 14 2 14 -4 16 -12 3z"/>
<path d="M7140 6431 c0 -5 7 -12 16 -15 14 -5 15 -4 4 9 -14 17 -20 19 -20 6z"/>
<path d="M7115 6366 c5 -32 11 -41 18 -29 3 5 -1 19 -9 33 l-14 25 5 -29z"/>
<path d="M6999 6328 c-5 -18 -6 -38 -1 -34 7 8 12 36 6 36 -2 0 -4 -1 -5 -2z"/>
<path d="M7024 6314 c1 -8 5 -16 8 -20 4 -3 -3 -15 -14 -26 -13 -13 -16 -23
-9 -32 6 -7 6 -17 1 -26 -9 -15 -11 -13 -14 12 0 6 -8 12 -17 14 -13 1 -16 -4
-13 -26 3 -16 0 -31 -6 -35 -7 -4 -10 0 -8 10 2 10 -3 19 -10 21 -7 1 -8 0 -3
-2 6 -3 8 -11 5 -18 -3 -7 4 -20 14 -30 19 -16 20 -16 25 5 4 14 10 18 19 13
7 -4 10 -4 6 1 -4 4 3 22 15 39 12 17 22 40 22 51 0 22 22 27 45 11 8 -6 6 1
-5 16 -17 22 -22 25 -31 13 -6 -8 -14 -12 -17 -8 -4 3 -2 11 3 18 7 8 5 12 -4
12 -8 0 -13 -6 -12 -13z m11 -73 c-9 -16 -25 -3 -18 15 4 10 9 12 15 6 6 -6 7
-15 3 -21z m-48 -18 c-4 -3 -2 -12 3 -18 7 -8 3 -18 -12 -31 -18 -15 -20 -16
-9 -2 7 10 11 24 8 32 -5 13 0 26 11 26 3 0 2 -3 -1 -7z"/>
<path d="M6923 6305 c0 -8 4 -12 9 -9 5 3 6 10 3 15 -9 13 -12 11 -12 -6z"/>
<path d="M6883 6285 c0 -6 6 -12 12 -12 6 0 12 6 12 12 0 6 -6 12 -12 12 -6 0
-12 -6 -12 -12z"/>
<path d="M6960 6269 c-10 -17 -14 -18 -28 -7 -15 12 -16 11 -3 -4 7 -10 17
-15 22 -12 11 6 32 44 25 44 -3 0 -10 -9 -16 -21z"/>
<path d="M6980 6259 c0 -5 5 -7 10 -4 6 3 10 8 10 11 0 2 -4 4 -10 4 -5 0 -10
-5 -10 -11z"/>
<path d="M6669 6258 c-6 -20 -6 -39 0 -42 4 -3 7 6 7 20 0 20 -4 32 -7 22z"/>
<path d="M6773 6245 c0 -6 6 -12 12 -12 6 0 12 6 12 12 0 6 -6 12 -12 12 -6 0
-12 -6 -12 -12z"/>
<path d="M6907 6237 c-3 -8 1 -14 8 -14 7 0 11 6 8 14 -3 7 -6 13 -8 13 -2 0
-5 -6 -8 -13z"/>
<path d="M6866 6224 c-3 -9 -4 -19 -1 -22 3 -3 5 1 5 9 0 11 2 11 10 -1 5 -8
10 -10 10 -5 0 6 -4 16 -9 23 -6 11 -10 10 -15 -4z"/>
<path d="M6755 6200 c6 -30 16 -40 12 -12 -2 12 -6 24 -10 28 -3 4 -4 -4 -2
-16z"/>
<path d="M6830 6205 c-7 -9 -10 -18 -6 -22 3 -3 6 -1 6 6 0 7 4 10 8 7 5 -3 9
1 9 9 0 19 -2 19 -17 0z"/>
<path d="M6799 6176 c10 -26 -7 -54 -24 -38 -5 4 -5 1 -1 -5 4 -8 2 -13 -6
-13 -7 0 -5 -5 6 -11 14 -9 20 -8 26 1 6 9 9 9 15 1 10 -17 35 6 28 26 -5 13
-7 13 -15 -1 -5 -9 -14 -14 -19 -10 -6 4 -3 14 8 27 10 11 12 17 6 13 -8 -4
-13 -1 -13 8 0 8 -4 18 -10 21 -7 4 -7 -2 -1 -19z"/>
<path d="M6730 6149 c0 -5 5 -7 10 -4 6 3 10 8 10 11 0 2 -4 4 -10 4 -5 0 -10
-5 -10 -11z"/>
<path d="M6768 6153 c7 -3 16 -2 19 1 4 3 -2 6 -13 5 -11 0 -14 -3 -6 -6z"/>
<path d="M6663 6106 c-3 -6 -3 -8 2 -4 4 4 14 3 22 -4 7 -6 16 -8 20 -4 3 3 1
6 -6 6 -7 0 -10 4 -7 8 3 5 -2 9 -10 9 -8 0 -18 -5 -21 -11z"/>
<path d="M6766 6077 c-11 -8 -17 -19 -15 -26 3 -8 13 -3 28 13 26 28 17 35
-13 13z"/>
<path d="M6683 5950 c-11 -16 -10 -18 2 -14 8 4 15 12 15 20 0 19 -3 18 -17
-6z"/>
<path d="M6721 5961 c-10 -7 -11 -13 -2 -27 6 -11 11 -14 11 -9 1 6 3 18 5 28
4 20 4 19 -14 8z"/>
<path d="M6666 5878 c3 -5 10 -6 15 -3 13 9 11 12 -6 12 -8 0 -12 -4 -9 -9z"/>
<path d="M6679 5797 c17 -21 58 -22 58 -2 0 12 -3 12 -14 3 -11 -9 -20 -9 -36
2 -20 12 -21 12 -8 -3z"/>
<path d="M6606 5723 c-6 -14 -5 -15 5 -6 7 7 10 15 7 18 -3 3 -9 -2 -12 -12z"/>
<path d="M7580 4646 c0 -2 8 -10 18 -17 15 -13 16 -12 3 4 -13 16 -21 21 -21
13z"/>
<path d="M7504 4565 c-10 -8 -14 -15 -7 -15 6 0 10 -11 8 -25 -2 -27 16 -30
21 -4 2 7 6 24 10 37 7 25 -4 28 -32 7z m26 -5 c0 -5 -5 -10 -11 -10 -5 0 -7
5 -4 10 3 6 8 10 11 10 2 0 4 -4 4 -10z"/>
<path d="M7590 4561 c0 -7 -5 -9 -12 -5 -7 5 -8 3 -3 -5 5 -9 10 -10 18 -2 6
6 8 14 4 18 -4 3 -7 1 -7 -6z"/>
<path d="M7806 4528 c3 -5 10 -6 15 -3 13 9 11 12 -6 12 -8 0 -12 -4 -9 -9z"/>
<path d="M8625 4129 c3 -3 -3 -13 -12 -20 -14 -12 -16 -12 -11 2 4 9 1 16 -7
16 -8 0 -12 -8 -9 -20 3 -19 3 -19 -16 -2 -19 17 -20 17 -21 -1 -1 -10 -1 -23
0 -27 1 -5 -4 -5 -10 -1 -9 5 -10 2 -6 -10 4 -10 3 -15 -3 -11 -6 3 -10 16
-10 27 0 20 -1 20 -19 4 -10 -10 -27 -16 -37 -14 -10 2 -19 -2 -19 -9 0 -6 -4
-15 -9 -20 -5 -4 -6 -3 -3 3 8 15 -19 39 -27 25 -4 -5 -18 -8 -31 -5 -19 3
-25 0 -25 -13 0 -14 -2 -15 -9 -4 -6 9 -11 10 -15 2 -11 -17 -25 -3 -21 19 2
12 0 18 -6 15 -5 -4 -7 -11 -4 -16 4 -5 2 -9 -4 -9 -6 0 -7 -8 -4 -17 6 -15 5
-16 -9 -3 -11 11 -12 17 -4 22 7 5 4 8 -7 8 -10 0 -16 4 -13 9 4 5 -2 8 -11 6
-10 -1 -24 2 -30 8 -7 5 -13 7 -13 4 0 -3 -17 1 -37 9 l-38 15 48 -46 c29 -28
54 -45 62 -41 8 3 14 0 12 -5 -4 -22 75 -41 154 -36 62 3 86 9 130 34 56 31
130 110 104 110 -8 0 -12 -4 -10 -8z m-393 -53 c3 2 8 -2 12 -11 4 -13 2 -14
-14 -5 -25 13 -33 13 -24 -2 4 -7 3 -8 -4 -4 -6 4 -9 13 -5 22 4 10 9 12 18 4
6 -5 14 -7 17 -4z m275 -16 c-1 -11 -5 -20 -9 -20 -10 0 -10 4 -2 24 8 22 13
20 11 -4z m-87 2 c0 -4 -8 -12 -18 -19 -15 -9 -19 -8 -19 3 0 7 4 11 8 8 4 -2
10 0 14 6 7 12 15 13 15 2z"/>
<path d="M8320 4079 c0 -5 5 -7 10 -4 6 3 10 8 10 11 0 2 -4 4 -10 4 -5 0 -10
-5 -10 -11z"/>
<path d="M8066 3992 c-3 -5 1 -9 9 -9 8 0 15 4 15 9 0 4 -4 8 -9 8 -6 0 -12
-4 -15 -8z"/>
</g>
</svg>
